<?xml version="1.0" encoding="utf-8"?>
<!-- Svg Vector Icons : http://www.onlinewebfonts.com/icon -->
<!DOCTYPE svg PUBLIC "-//W3C//DTD SVG 1.1//EN" "http://www.w3.org/Graphics/SVG/1.1/DTD/svg11.dtd">
<svg version="1.1" xmlns="http://www.w3.org/2000/svg" xmlns:xlink="http://www.w3.org/1999/xlink" x="0px" y="0px" viewBox="0 0 1000 1000" enable-background="new 0 0 1000 1000" xml:space="preserve">
<metadata> Svg Vector Icons : http://www.onlinewebfonts.com/icon </metadata>
<g><g transform="translate(0.000000,511.000000) scale(0.100000,-0.100000)"><path d="M474.7,4992.5c-171.9-46.2-318.2-197.6-364.4-372c-33.3-128.3-15.4-256.6,515.7-3705C926.3-1050,1188-2707.5,1203.4-2771.7c59-238.6,15.4-213,1906.4-1159.8c1665.2-831.3,1757.6-874.9,1891-874.9c133.4,0,228.4,43.6,1847.4,854.4c939.1,469.5,1737.1,874.9,1778.1,903.2c156.5,112.9,143.7,35.9,736.4,3900c536.3,3481.8,559.3,3646,528.5,3769.2c-46.2,171.9-187.3,318.2-359.2,369.5c-110.3,33.3-728.7,38.5-4528.7,35.9C1465.1,5025.8,574.7,5018.1,474.7,4992.5z M7433.2,3337.5c192.4-100.1,313-289.9,313-495.2c0-125.7-92.4-341.2-177.1-415.7c-30.8-28.2-577.3-313-1216.2-633.8l-1159.8-585l785.1-2.6h782.6l130.9-64.1c151.4-77,246.3-200.1,292.5-379.7c28.2-115.5,18-169.3-272-1326.5c-331-1326.5-341.3-1352.2-556.8-1467.7l-110.3-59H5000.8c-1239.3,0-1244.4,0-1352.2,56.4c-202.7,110.3-233.5,179.6-420.8,923.7l-171.9,674.8h574.7h572.2l25.7-94.9c15.4-53.9,43.6-174.5,69.3-269.4l41.1-174.5h662h662l130.8,526c71.9,287.4,130.9,531.1,130.9,538.8c0,7.7-674.8,12.8-1501,12.8H2925l-25.7,97.5c-94.9,359.2-233.5,934-233.5,967.3c0,25.7,351.5,213,1064.8,572.2l1064.8,531.1L3584.4,2283l-1211.1,12.8l-118,474.7c-66.7,261.7-128.3,505.5-136,546.5l-18,69.3h2617.1C7245.9,3386.3,7340.8,3383.7,7433.2,3337.5z"/></g></g>
</svg>