<?xml version="1.0" encoding="utf-8"?>
<!-- Svg Vector Icons : http://www.onlinewebfonts.com/icon -->
<!DOCTYPE svg PUBLIC "-//W3C//DTD SVG 1.1//EN" "http://www.w3.org/Graphics/SVG/1.1/DTD/svg11.dtd">
<svg version="1.1" xmlns="http://www.w3.org/2000/svg" xmlns:xlink="http://www.w3.org/1999/xlink" x="0px" y="0px" viewBox="0 0 1000 1000" enable-background="new 0 0 1000 1000" xml:space="preserve">
<metadata> Svg Vector Icons : http://www.onlinewebfonts.com/icon </metadata>
<g><g><path d="M696.2,10H303.8c-54,0-97.8,43.8-97.8,97.8v784.3c0,54,43.8,97.9,97.8,97.9h392.3c54,0,97.9-43.8,97.9-97.8V107.8C794,53.8,750.2,10,696.2,10L696.2,10z M500,941c-33.8,0-61.3-21.9-61.3-49s27.4-49,61.3-49c33.8,0,61.3,21.9,61.3,49S533.8,941,500,941z M696,794H304V108h392V794z"/></g></g>
</svg>